<svg width="22" height="14" viewBox="0 0 22 14" fill="none" xmlns="http://www.w3.org/2000/svg">
<path id="&#239;&#129;&#161;" d="M-0.000217438 6.95529C-0.000217438 7.25886 0.115854 7.5535 0.330139 7.75886L6.14264 13.5714C6.35693 13.7856 6.65157 13.9106 6.95514 13.9106C7.25871 13.9106 7.54443 13.7856 7.75871 13.5714L8.42836 12.9017C8.64264 12.6964 8.76764 12.4017 8.76764 12.0981C8.76764 11.7946 8.64264 11.4999 8.42836 11.2946L5.81228 8.66957H20.1419C20.7847 8.66957 21.1865 8.13386 21.1865 7.52672V6.38386C21.1865 5.77671 20.7847 5.241 20.1419 5.241H5.81228L8.42836 2.62493C8.64264 2.41064 8.76764 2.116 8.76764 1.81243C8.76764 1.50886 8.64264 1.21422 8.42836 0.999929L7.75871 0.330286C7.54443 0.124928 7.25871 -7.05719e-05 6.95514 -7.05719e-05C6.65157 -7.05719e-05 6.35693 0.124928 6.14264 0.330286L0.330139 6.14279C0.115854 6.35707 -0.000217438 6.65172 -0.000217438 6.95529Z" fill="#B2D235"/>
</svg>
