<svg width="17" height="19" viewBox="0 0 17 19" fill="none" xmlns="http://www.w3.org/2000/svg">
<path d="M11.5714 11.8214C11.5714 11.6406 11.4308 11.5 11.25 11.5H5.46429C5.28348 11.5 5.14286 11.6406 5.14286 11.8214V12.4643C5.14286 12.6451 5.28348 12.7857 5.46429 12.7857H11.25C11.4308 12.7857 11.5714 12.6451 11.5714 12.4643V11.8214ZM1.28571 17.2857V7H15.4286V17.2857H1.28571ZM5.14286 5.07143C5.14286 5.25223 5.00223 5.39286 4.82143 5.39286H4.17857C3.99777 5.39286 3.85714 5.25223 3.85714 5.07143V2.17857C3.85714 1.99777 3.99777 1.85714 4.17857 1.85714H4.82143C5.00223 1.85714 5.14286 1.99777 5.14286 2.17857V5.07143ZM12.8571 5.07143C12.8571 5.25223 12.7165 5.39286 12.5357 5.39286H11.8929C11.7121 5.39286 11.5714 5.25223 11.5714 5.07143V2.17857C11.5714 1.99777 11.7121 1.85714 11.8929 1.85714H12.5357C12.7165 1.85714 12.8571 1.99777 12.8571 2.17857V5.07143ZM16.7143 4.42857C16.7143 3.72545 16.1317 3.14286 15.4286 3.14286H14.1429V2.17857C14.1429 1.29464 13.4196 0.571427 12.5357 0.571427H11.8929C11.0089 0.571427 10.2857 1.29464 10.2857 2.17857V3.14286H6.42857V2.17857C6.42857 1.29464 5.70536 0.571427 4.82143 0.571427H4.17857C3.29464 0.571427 2.57143 1.29464 2.57143 2.17857V3.14286H1.28571C0.582589 3.14286 0 3.72545 0 4.42857V17.2857C0 17.9888 0.582589 18.5714 1.28571 18.5714H15.4286C16.1317 18.5714 16.7143 17.9888 16.7143 17.2857V4.42857Z" fill="#505353"/>
</svg>
